<?xml version="1.0" encoding="iso-8859-1"?>
<!-- Generator: Adobe Illustrator 19.0.0, SVG Export Plug-In . SVG Version: 6.00 Build 0)  -->
<svg version="1.1" id="Capa_1" xmlns="http://www.w3.org/2000/svg" xmlns:xlink="http://www.w3.org/1999/xlink" x="0px" y="0px"
	 viewBox="0 0 512 512" style="enable-background:new 0 0 512 512;" xml:space="preserve">
		<path d="M465.99,212.009h-59.997c-8.291,0-14.999,6.709-14.999,14.999v134.993H181.004v-44.998
			c0-12.371-14.16-19.363-23.993-11.996L37.017,395.002c-8.006,5.989-7.994,18.013,0,23.993l119.994,89.995
			c9.69,7.322,23.993,0.501,23.993-11.996v-44.998h254.987c24.813,0,44.998-20.185,44.998-44.998V227.008
			C480.989,218.717,474.28,212.009,465.99,212.009z"/>
		<path d="M474.983,93.022L354.989,3.026c-9.79-7.407-23.993-0.379-23.993,11.996V60.02H76.009
			c-24.813,0-44.998,20.185-44.998,44.998v179.991c0,8.291,6.709,14.799,14.999,14.799h59.997c8.291,0,14.999-6.509,14.999-14.799
			V149.816h209.989v45.198c0,12.44,14.292,19.374,23.993,11.996l119.994-89.995C482.989,111.026,482.977,99.001,474.983,93.022z"/>
</svg>
